<svg width="24" height="24" viewBox="0 0 24 24" fill="none" xmlns="http://www.w3.org/2000/svg">
<path d="M9.29289 7.20711L8.09256 8.40744C7.74975 8.75025 7.7025 9.29107 7.98245 9.68688C10.3435 13.025 11.3355 14.027 14.32 16.045C14.7142 16.3115 15.2419 16.2581 15.5783 15.9217L17.2929 14.2071C17.6834 13.8166 18.3166 13.8166 18.7071 14.2071L20.5144 16.0144C20.8069 16.3069 20.8892 16.7492 20.686 17.1096C20.2788 17.8317 19.5007 18.9997 18.5 19.5C17.2062 20.1469 15.9123 20.0498 15.5811 20.0109C15.5264 20.0045 15.4735 20.0001 15.4185 19.9972C14.8712 19.9681 11.6429 19.643 8 16C4 12 4 8.5 4 8.5C4 8.5 4 7.5 4.5 6C4.81932 5.04205 5.75042 4.28802 6.38166 3.86816C6.74005 3.62978 7.20529 3.70529 7.50965 4.00965L9.29289 5.79289C9.68342 6.18342 9.68342 6.81658 9.29289 7.20711Z" stroke="black" stroke-linecap="round"/>
</svg>
