<svg width="24" height="24" viewBox="0 0 24 24" fill="none" xmlns="http://www.w3.org/2000/svg">
<path d="M4 4H5.27215C5.76714 4 6.18765 4.36214 6.26108 4.85166L6.45333 6.13333L7.73333 14.6667M7.73333 14.6667H16.5981C17.0355 14.6667 17.4222 14.3824 17.5526 13.9649L20 6.13333M7.73333 14.6667H5.53333C4.98105 14.6667 4.53333 15.1144 4.53333 15.6667V15.8C4.53333 16.3523 4.98105 16.8 5.53333 16.8H17.3333M13 3V9.5M10 7L12.2929 9.29289C12.6834 9.68342 13.3166 9.68342 13.7071 9.29289L16 7" stroke="black" stroke-linecap="round"/>
<circle cx="8.8" cy="19.4667" r="1.1" stroke="black"/>
<circle cx="14.1333" cy="19.4667" r="1.1" stroke="black"/>
</svg>
