<svg width="24" height="24" viewBox="0 0 24 24" fill="none" xmlns="http://www.w3.org/2000/svg">
<path d="M6 11.8571H19C19.5523 11.8571 20 11.4094 20 10.8571V9C20 8.44772 19.5523 8 19 8H12M6 11.8571H5C4.44772 11.8571 4 11.4094 4 10.8571V9C4 8.44772 4.44772 8 5 8H12M6 11.8571V19C6 19.5523 6.44772 20 7 20H17C17.5523 20 18 19.5523 18 19V12.2857M12 8V19.5714" stroke="black" stroke-linecap="round" stroke-linejoin="round"/>
<path d="M7.11818 6.58063L12 8L9.19657 4.72192C7.11818 2.67734 4.45537 5.51609 7.11818 6.58063Z" stroke="black" stroke-linecap="round" stroke-linejoin="round"/>
<path d="M16.8818 6.58063L12 8L14.8034 4.72192C16.8818 2.67734 19.5446 5.51609 16.8818 6.58063Z" stroke="black" stroke-linecap="round" stroke-linejoin="round"/>
</svg>
