<svg width="24" height="24" viewBox="0 0 24 24" fill="none" xmlns="http://www.w3.org/2000/svg">
<rect x="2.5" y="5.5" width="19" height="13" rx="1.5" stroke="black" stroke-linejoin="round"/>
<path d="M6.5 6C6.5 7.16667 5.8 9.5 3 9.5" stroke="black" stroke-linecap="round" stroke-linejoin="round"/>
<path d="M6.5 18.5C6.5 17.3333 5.8 15 3 15" stroke="black" stroke-linecap="round" stroke-linejoin="round"/>
<path d="M18 6C18 7.16667 18.7 9.5 21.5 9.5" stroke="black" stroke-linecap="round" stroke-linejoin="round"/>
<path d="M18 18.5C18 17.3333 18.7 15 21.5 15" stroke="black" stroke-linecap="round" stroke-linejoin="round"/>
<path d="M14 9.6H12M10 14.4H12M12 9.6H11C10.4477 9.6 10 10.0477 10 10.6V11C10 11.5523 10.4477 12 11 12H13C13.5523 12 14 12.4477 14 13V13.4C14 13.9523 13.5523 14.4 13 14.4H12M12 9.6V8M12 14.4V16" stroke="black" stroke-linecap="round" stroke-linejoin="round"/>
</svg>
