<svg width="24" height="24" viewBox="0 0 24 24" fill="none" xmlns="http://www.w3.org/2000/svg">
<path d="M11.2275 3.77637C11.7295 3.6133 12.2705 3.6133 12.7725 3.77637L16.209 4.89355C16.7109 5.05675 17.1488 5.37479 17.459 5.80176L19.582 8.72461C19.8922 9.1516 20.0595 9.66562 20.0596 10.1934V13.8066C20.0595 14.3344 19.8922 14.8484 19.582 15.2754L17.459 18.1982C17.1488 18.6252 16.7109 18.9432 16.209 19.1064L12.7725 20.2236C12.2705 20.3867 11.7295 20.3867 11.2275 20.2236L7.79102 19.1064C7.28914 18.9432 6.85122 18.6252 6.54102 18.1982L4.41797 15.2754C4.10783 14.8484 3.94048 14.3344 3.94043 13.8066V10.1934C3.94048 9.66562 4.10784 9.1516 4.41797 8.72461L6.54102 5.80176C6.85122 5.37479 7.28914 5.05675 7.79102 4.89355L11.2275 3.77637Z" stroke="black"/>
<path d="M8.625 15.375L15.375 8.625" stroke="black" stroke-linecap="round" stroke-linejoin="round"/>
<circle cx="9.75" cy="9.75" r="0.625" stroke="black"/>
<circle cx="14.25" cy="14.25" r="0.625" stroke="black"/>
</svg>
